<svg width="1920" height="1080" viewBox="0 0 1920 1080" fill="none" xmlns="http://www.w3.org/2000/svg">
  <defs>
    <linearGradient id="sky" x1="960" y1="0" x2="960" y2="1080" gradientUnits="userSpaceOnUse">
      <stop stop-color="#B7D7E7"/>
      <stop offset="0.36" stop-color="#CFE8EF"/>
      <stop offset="0.6" stop-color="#BFD8CA"/>
      <stop offset="1" stop-color="#6E8F7E"/>
    </linearGradient>
    <linearGradient id="water" x1="960" y1="612" x2="960" y2="1080" gradientUnits="userSpaceOnUse">
      <stop stop-color="#8FC0CC"/>
      <stop offset="0.55" stop-color="#74A8AE"/>
      <stop offset="1" stop-color="#668E7B"/>
    </linearGradient>
    <radialGradient id="sun" cx="0" cy="0" r="1" gradientUnits="userSpaceOnUse" gradientTransform="translate(1368 152) rotate(90) scale(188 260)">
      <stop stop-color="#FFF7D3"/>
      <stop offset="1" stop-color="#FFF7D3" stop-opacity="0"/>
    </radialGradient>
    <filter id="blurLeaf" x="-80" y="-80" width="2080" height="480" filterUnits="userSpaceOnUse" color-interpolation-filters="sRGB">
      <feGaussianBlur stdDeviation="18"/>
    </filter>
  </defs>

  <rect width="1920" height="1080" fill="url(#sky)"/>
  <rect y="612" width="1920" height="468" fill="url(#water)"/>
  <ellipse cx="1368" cy="152" rx="260" ry="188" fill="url(#sun)"/>

  <path d="M0 570C190 522 282 450 474 456C640 460 728 538 904 548C1112 560 1240 422 1462 430C1638 436 1750 528 1920 534V694H0V570Z" fill="#91B59D" fill-opacity="0.58"/>
  <path d="M0 620C196 600 336 566 500 576C696 588 808 666 992 670C1204 676 1368 562 1578 566C1700 568 1818 612 1920 642V734H0V620Z" fill="#5E7D6B" fill-opacity="0.44"/>
  <path d="M0 724C196 706 316 684 448 692C620 704 764 780 968 784C1178 788 1314 712 1498 714C1662 716 1778 760 1920 792V1080H0V724Z" fill="#5A7D74" fill-opacity="0.3"/>

  <ellipse cx="1024" cy="754" rx="336" ry="34" fill="#D9F1F5" fill-opacity="0.22"/>
  <ellipse cx="1108" cy="834" rx="420" ry="46" fill="#B6DDE0" fill-opacity="0.12"/>

  <g filter="url(#blurLeaf)" opacity="0.92">
    <path d="M0 54C92 10 146 18 234 48C314 76 384 140 470 170C552 198 640 216 690 188C756 152 754 80 822 36C906 -18 1042 -4 1128 42C1202 82 1230 150 1298 184C1382 226 1510 218 1600 172C1684 128 1740 48 1816 28C1860 16 1898 18 1920 22V0H0V54Z" fill="#476A2F"/>
    <path d="M0 112C102 66 202 64 270 92C368 132 410 224 528 250C616 270 712 244 786 198C860 152 930 82 1032 66C1138 50 1254 104 1314 168C1374 232 1412 300 1512 304C1608 308 1688 252 1768 196C1828 154 1882 114 1920 96" stroke="#355527" stroke-width="68" stroke-linecap="round"/>
  </g>

  <g opacity="0.88">
    <path d="M0 886C156 852 290 844 440 854C598 864 760 914 938 918C1120 924 1260 870 1436 868C1612 866 1778 902 1920 944V1080H0V886Z" fill="#D7D3A4" fill-opacity="0.28"/>
    <path d="M0 940C114 920 196 910 294 918C450 930 548 982 714 992C886 1002 1028 960 1180 954C1366 948 1536 986 1688 1010C1772 1024 1848 1038 1920 1050V1080H0V940Z" fill="#B7C994" fill-opacity="0.28"/>
  </g>

  <g opacity="0.9">
    <circle cx="1540" cy="278" r="46" fill="#D7F07A"/>
    <circle cx="1604" cy="256" r="38" fill="#AFE45A"/>
    <circle cx="1652" cy="304" r="54" fill="#A2D45A"/>
    <circle cx="1720" cy="268" r="40" fill="#93C64F"/>
  </g>

  <g opacity="0.85">
    <circle cx="118" cy="840" r="70" fill="#BFC586"/>
    <circle cx="196" cy="878" r="84" fill="#AAC67C"/>
    <circle cx="282" cy="846" r="64" fill="#9FBA6A"/>
    <circle cx="58" cy="926" r="52" fill="#C9D59A"/>
  </g>
</svg>
